0
SECTION
2
HEADER
9
$INSUNITS
70
4
9
$ACADVER
1
AC1014
9
$HANDSEED
5
FFFF
0
ENDSEC
0
SECTION
2
TABLES
0
TABLE
2
VPORT
5
8
100
AcDbSymbolTable
0
ENDTAB
0
TABLE
2
LTYPE
5
5
100
AcDbSymbolTable
0
LTYPE
5
14
100
AcDbSymbolTableRecord
100
AcDbLinetypeTableRecord
2
BYBLOCK
70
0
0
LTYPE
5
15
100
AcDbSymbolTableRecord
100
AcDbLinetypeTableRecord
2
BYLAYER
70
0
0
ENDTAB
0
TABLE
2
LAYER
5
2
100
AcDbSymbolTable
70
2
0
LAYER
5
50
100
AcDbSymbolTableRecord
100
AcDbLayerTableRecord
2
0
70
0
6
CONTINUOUS
0
ENDTAB
0
TABLE
2
STYLE
5
3
100
AcDbSymbolTable
70
1
0
STYLE
5
11
100
AcDbSymbolTableRecord
100
AcDbTextStyleTableRecord
2
STANDARD
70
0
0
ENDTAB
0
TABLE
2
VIEW
5
6
100
AcDbSymbolTable
70
0
0
ENDTAB
0
TABLE
2
UCS
5
7
100
AcDbSymbolTable
70
0
0
ENDTAB
0
TABLE
2
APPID
5
9
100
AcDbSymbolTable
70
2
0
APPID
5
12
100
AcDbSymbolTableRecord
100
AcDbRegAppTableRecord
2
ACAD
70
0
0
ENDTAB
0
TABLE
2
DIMSTYLE
5
A
100
AcDbSymbolTable
70
1
0
ENDTAB
0
TABLE
2
BLOCK_RECORD
5
1
100
AcDbSymbolTable
70
1
0
BLOCK_RECORD
5
1F
100
AcDbSymbolTableRecord
100
AcDbBlockTableRecord
2
*MODEL_SPACE
0
BLOCK_RECORD
5
1B
100
AcDbSymbolTableRecord
100
AcDbBlockTableRecord
2
*PAPER_SPACE
0
ENDTAB
0
ENDSEC
0
SECTION
2
BLOCKS
0
BLOCK
5
20
100
AcDbEntity
100
AcDbBlockBegin
2
*MODEL_SPACE
0
ENDBLK
5
21
100
AcDbEntity
100
AcDbBlockEnd
0
BLOCK
5
1C
100
AcDbEntity
100
AcDbBlockBegin
2
*PAPER_SPACE
0
ENDBLK
5
1D
100
AcDbEntity
100
AcDbBlockEnd
0
ENDSEC
0
SECTION
2
ENTITIES
0
LWPOLYLINE
5
100
100
AcDbEntity
8
0
100
AcDbPolyline
90
32
70
1
43
0.0
10
14.330865062722914
20
-21.299174785275223
42
0.15489838044509749
10
12.6007044439163
20
-20.75
10
3.75
20
-20.749999999999993
42
0.41421356237309453
10
0.74999999999999734
20
-23.75
10
0.74999999999999289
20
-446.25
42
0.41421356237309992
10
3.75
20
-449.25
10
12.600704443916264
20
-449.25
42
0.15489838044507406
10
14.330865062722877
20
-448.70082521472477
42
-0.84237934100493994
10
21.299174785275213
20
-455.66913493727702
42
0.15489838044509147
10
20.750000000000014
20
-457.39929555608364
10
20.749999999999993
20
-467
42
0.4142135623731007
10
23.75
20
-470
10
425.25000000000006
20
-470
42
0.41421356237310886
10
428.25
20
-467
10
428.25
20
-457.39929555608353
42
0.15489838044515503
10
427.70082521472483
20
-455.66913493727691
42
-0.84237934100493606
10
434.66913493727714
20
-448.70082521472466
42
0.1548983804451344
10
436.39929555608381
20
-449.24999999999989
10
445.25000000000006
20
-449.25
42
0.41421356237310886
10
448.25
20
-446.25
10
448.25
20
-23.75
42
0.4142135623731007
10
445.25000000000006
20
-20.749999999999972
10
436.39929555608376
20
-20.749999999999993
42
0.15489838044508872
10
434.66913493727714
20
-21.299174785275202
42
-0.84237934100492806
10
427.70082521472483
20
-14.330865062722937
42
0.15489838044514703
10
428.25
20
-12.6007044439163
10
428.25
20
-3.0000000000000071
42
0.41421356237310014
10
425.25000000000006
20
1.6653345369377348e-14
10
23.75
20
0
42
0.4142135623730957
10
20.75
20
-3.0000000000000071
10
20.749999999999993
20
-12.600704443916317
42
0.15489838044509308
10
21.299174785275223
20
-14.330865062722918
42
-0.84237934100492984
0
LWPOLYLINE
5
101
100
AcDbEntity
8
0
100
AcDbPolyline
90
8
70
1
43
0.0
10
189.5
20
-367.50000000000006
10
189.50000000000003
20
-352.50000000000006
42
-0.41421356237309087
10
194.50000000000003
20
-347.5
10
204.49999999999994
20
-347.5
42
-0.41421356237309087
10
209.5
20
-352.50000000000006
10
209.49999999999994
20
-367.5
42
-0.41421356237310125
10
204.5
20
-372.5
10
194.5
20
-372.50000000000011
42
-0.41421356237310125
0
LWPOLYLINE
5
102
100
AcDbEntity
8
0
100
AcDbPolyline
90
8
70
1
43
0.0
10
189.5
20
-217.50000000000003
10
189.5
20
-202.50000000000006
42
-0.4142135623730992
10
194.50000000000003
20
-197.50000000000003
10
204.49999999999994
20
-197.50000000000003
42
-0.4142135623730992
10
209.5
20
-202.50000000000006
10
209.5
20
-217.50000000000003
42
-0.41421356237309087
10
204.5
20
-222.50000000000003
10
194.5
20
-222.50000000000003
42
-0.41421356237309087
0
LWPOLYLINE
5
103
100
AcDbEntity
8
0
100
AcDbPolyline
90
8
70
1
43
0.0
10
189.5
20
-67.500000000000043
10
189.50000000000003
20
-52.500000000000064
42
-0.41421356237309603
10
194.50000000000003
20
-47.500000000000028
10
204.49999999999994
20
-47.5
42
-0.41421356237309659
10
209.5
20
-52.500000000000064
10
209.5
20
-67.500000000000028
42
-0.41421356237309193
10
204.5
20
-72.500000000000043
10
194.5
20
-72.500000000000085
42
-0.41421356237309298
0
CIRCLE
5
104
100
AcDbEntity
8
0
100
AcDbCircle
10
399.49999999999994
20
-435.00000000000006
30
0
40
2.6499999999999968
210
0
220
0
230
1
0
CIRCLE
5
105
100
AcDbEntity
8
0
100
AcDbCircle
10
399.49999999999994
20
-385.00000000000006
30
0
40
2.6499999999999968
210
0
220
0
230
1
0
CIRCLE
5
106
100
AcDbEntity
8
0
100
AcDbCircle
10
399.49999999999994
20
-335.00000000000006
30
0
40
2.6499999999999968
210
0
220
0
230
1
0
CIRCLE
5
107
100
AcDbEntity
8
0
100
AcDbCircle
10
399.49999999999994
20
-285.00000000000006
30
0
40
2.6499999999999968
210
0
220
0
230
1
0
CIRCLE
5
108
100
AcDbEntity
8
0
100
AcDbCircle
10
399.49999999999994
20
-235.00000000000003
30
0
40
2.6499999999999968
210
0
220
0
230
1
0
CIRCLE
5
109
100
AcDbEntity
8
0
100
AcDbCircle
10
399.49999999999994
20
-185.00000000000003
30
0
40
2.6499999999999968
210
0
220
0
230
1
0
CIRCLE
5
110
100
AcDbEntity
8
0
100
AcDbCircle
10
399.49999999999994
20
-135.00000000000003
30
0
40
2.6499999999999968
210
0
220
0
230
1
0
CIRCLE
5
111
100
AcDbEntity
8
0
100
AcDbCircle
10
399.49999999999994
20
-85.000000000000028
30
0
40
2.6499999999999968
210
0
220
0
230
1
0
CIRCLE
5
112
100
AcDbEntity
8
0
100
AcDbCircle
10
399.49999999999994
20
-35.000000000000043
30
0
40
2.6499999999999968
210
0
220
0
230
1
0
CIRCLE
5
113
100
AcDbEntity
8
0
100
AcDbCircle
10
349.49999999999994
20
-435.00000000000006
30
0
40
2.6499999999999968
210
0
220
0
230
1
0
CIRCLE
5
114
100
AcDbEntity
8
0
100
AcDbCircle
10
349.49999999999994
20
-385.00000000000006
30
0
40
2.6499999999999968
210
0
220
0
230
1
0
CIRCLE
5
115
100
AcDbEntity
8
0
100
AcDbCircle
10
349.49999999999994
20
-335.00000000000006
30
0
40
2.6499999999999968
210
0
220
0
230
1
0
CIRCLE
5
116
100
AcDbEntity
8
0
100
AcDbCircle
10
349.49999999999994
20
-285.00000000000006
30
0
40
2.6499999999999968
210
0
220
0
230
1
0
CIRCLE
5
117
100
AcDbEntity
8
0
100
AcDbCircle
10
349.49999999999994
20
-235.00000000000003
30
0
40
2.6499999999999968
210
0
220
0
230
1
0
CIRCLE
5
118
100
AcDbEntity
8
0
100
AcDbCircle
10
349.49999999999994
20
-185.00000000000003
30
0
40
2.6499999999999968
210
0
220
0
230
1
0
CIRCLE
5
119
100
AcDbEntity
8
0
100
AcDbCircle
10
349.49999999999994
20
-135.00000000000003
30
0
40
2.6499999999999968
210
0
220
0
230
1
0
CIRCLE
5
120
100
AcDbEntity
8
0
100
AcDbCircle
10
349.49999999999994
20
-85.000000000000028
30
0
40
2.6499999999999968
210
0
220
0
230
1
0
CIRCLE
5
121
100
AcDbEntity
8
0
100
AcDbCircle
10
349.49999999999994
20
-35.000000000000043
30
0
40
2.6499999999999968
210
0
220
0
230
1
0
CIRCLE
5
122
100
AcDbEntity
8
0
100
AcDbCircle
10
299.5
20
-435.00000000000006
30
0
40
2.6499999999999968
210
0
220
0
230
1
0
CIRCLE
5
123
100
AcDbEntity
8
0
100
AcDbCircle
10
299.5
20
-385.00000000000006
30
0
40
2.6499999999999968
210
0
220
0
230
1
0
CIRCLE
5
124
100
AcDbEntity
8
0
100
AcDbCircle
10
299.5
20
-335.00000000000006
30
0
40
2.6499999999999968
210
0
220
0
230
1
0
CIRCLE
5
125
100
AcDbEntity
8
0
100
AcDbCircle
10
299.5
20
-285.00000000000006
30
0
40
2.6499999999999968
210
0
220
0
230
1
0
CIRCLE
5
126
100
AcDbEntity
8
0
100
AcDbCircle
10
299.5
20
-235.00000000000003
30
0
40
2.6499999999999968
210
0
220
0
230
1
0
CIRCLE
5
127
100
AcDbEntity
8
0
100
AcDbCircle
10
299.5
20
-185.00000000000003
30
0
40
2.6499999999999968
210
0
220
0
230
1
0
CIRCLE
5
128
100
AcDbEntity
8
0
100
AcDbCircle
10
299.5
20
-135.00000000000003
30
0
40
2.6499999999999968
210
0
220
0
230
1
0
CIRCLE
5
129
100
AcDbEntity
8
0
100
AcDbCircle
10
299.5
20
-85.000000000000028
30
0
40
2.6499999999999968
210
0
220
0
230
1
0
CIRCLE
5
130
100
AcDbEntity
8
0
100
AcDbCircle
10
299.5
20
-35.000000000000043
30
0
40
2.6499999999999968
210
0
220
0
230
1
0
CIRCLE
5
131
100
AcDbEntity
8
0
100
AcDbCircle
10
249.5
20
-435.00000000000006
30
0
40
2.6499999999999968
210
0
220
0
230
1
0
CIRCLE
5
132
100
AcDbEntity
8
0
100
AcDbCircle
10
249.5
20
-385.00000000000006
30
0
40
2.6499999999999968
210
0
220
0
230
1
0
CIRCLE
5
133
100
AcDbEntity
8
0
100
AcDbCircle
10
249.5
20
-335.00000000000006
30
0
40
2.6499999999999968
210
0
220
0
230
1
0
CIRCLE
5
134
100
AcDbEntity
8
0
100
AcDbCircle
10
249.5
20
-285.00000000000006
30
0
40
2.6499999999999968
210
0
220
0
230
1
0
CIRCLE
5
135
100
AcDbEntity
8
0
100
AcDbCircle
10
249.5
20
-235.00000000000003
30
0
40
2.6499999999999968
210
0
220
0
230
1
0
CIRCLE
5
136
100
AcDbEntity
8
0
100
AcDbCircle
10
249.5
20
-185.00000000000003
30
0
40
2.6499999999999968
210
0
220
0
230
1
0
CIRCLE
5
137
100
AcDbEntity
8
0
100
AcDbCircle
10
249.5
20
-135.00000000000003
30
0
40
2.6499999999999968
210
0
220
0
230
1
0
CIRCLE
5
138
100
AcDbEntity
8
0
100
AcDbCircle
10
249.5
20
-85.000000000000028
30
0
40
2.6499999999999968
210
0
220
0
230
1
0
CIRCLE
5
139
100
AcDbEntity
8
0
100
AcDbCircle
10
249.5
20
-35.000000000000043
30
0
40
2.6499999999999968
210
0
220
0
230
1
0
CIRCLE
5
140
100
AcDbEntity
8
0
100
AcDbCircle
10
199.5
20
-435.00000000000006
30
0
40
2.6499999999999968
210
0
220
0
230
1
0
CIRCLE
5
141
100
AcDbEntity
8
0
100
AcDbCircle
10
199.5
20
-385.00000000000006
30
0
40
2.6499999999999968
210
0
220
0
230
1
0
CIRCLE
5
142
100
AcDbEntity
8
0
100
AcDbCircle
10
199.5
20
-335.00000000000006
30
0
40
2.6499999999999968
210
0
220
0
230
1
0
CIRCLE
5
143
100
AcDbEntity
8
0
100
AcDbCircle
10
199.5
20
-285.00000000000006
30
0
40
2.6499999999999968
210
0
220
0
230
1
0
CIRCLE
5
144
100
AcDbEntity
8
0
100
AcDbCircle
10
199.5
20
-235.00000000000003
30
0
40
2.6499999999999968
210
0
220
0
230
1
0
CIRCLE
5
145
100
AcDbEntity
8
0
100
AcDbCircle
10
199.5
20
-185.00000000000003
30
0
40
2.6499999999999968
210
0
220
0
230
1
0
CIRCLE
5
146
100
AcDbEntity
8
0
100
AcDbCircle
10
199.5
20
-135.00000000000003
30
0
40
2.6499999999999968
210
0
220
0
230
1
0
CIRCLE
5
147
100
AcDbEntity
8
0
100
AcDbCircle
10
199.5
20
-85.000000000000028
30
0
40
2.6499999999999968
210
0
220
0
230
1
0
CIRCLE
5
148
100
AcDbEntity
8
0
100
AcDbCircle
10
199.5
20
-35.000000000000043
30
0
40
2.6499999999999968
210
0
220
0
230
1
0
CIRCLE
5
149
100
AcDbEntity
8
0
100
AcDbCircle
10
149.5
20
-435.00000000000006
30
0
40
2.6499999999999968
210
0
220
0
230
1
0
CIRCLE
5
150
100
AcDbEntity
8
0
100
AcDbCircle
10
149.5
20
-385.00000000000006
30
0
40
2.6499999999999968
210
0
220
0
230
1
0
CIRCLE
5
151
100
AcDbEntity
8
0
100
AcDbCircle
10
149.5
20
-335.00000000000006
30
0
40
2.6499999999999968
210
0
220
0
230
1
0
CIRCLE
5
152
100
AcDbEntity
8
0
100
AcDbCircle
10
149.5
20
-285.00000000000006
30
0
40
2.6499999999999968
210
0
220
0
230
1
0
CIRCLE
5
153
100
AcDbEntity
8
0
100
AcDbCircle
10
149.5
20
-235.00000000000003
30
0
40
2.6499999999999968
210
0
220
0
230
1
0
CIRCLE
5
154
100
AcDbEntity
8
0
100
AcDbCircle
10
149.5
20
-185.00000000000003
30
0
40
2.6499999999999968
210
0
220
0
230
1
0
CIRCLE
5
155
100
AcDbEntity
8
0
100
AcDbCircle
10
149.5
20
-135.00000000000003
30
0
40
2.6499999999999968
210
0
220
0
230
1
0
CIRCLE
5
156
100
AcDbEntity
8
0
100
AcDbCircle
10
149.5
20
-85.000000000000028
30
0
40
2.6499999999999968
210
0
220
0
230
1
0
CIRCLE
5
157
100
AcDbEntity
8
0
100
AcDbCircle
10
149.5
20
-35.000000000000043
30
0
40
2.6499999999999968
210
0
220
0
230
1
0
CIRCLE
5
158
100
AcDbEntity
8
0
100
AcDbCircle
10
99.5
20
-435.00000000000006
30
0
40
2.6499999999999968
210
0
220
0
230
1
0
CIRCLE
5
159
100
AcDbEntity
8
0
100
AcDbCircle
10
99.5
20
-385.00000000000006
30
0
40
2.6499999999999968
210
0
220
0
230
1
0
CIRCLE
5
160
100
AcDbEntity
8
0
100
AcDbCircle
10
99.5
20
-335.00000000000006
30
0
40
2.6499999999999968
210
0
220
0
230
1
0
CIRCLE
5
161
100
AcDbEntity
8
0
100
AcDbCircle
10
99.5
20
-285.00000000000006
30
0
40
2.6499999999999968
210
0
220
0
230
1
0
CIRCLE
5
162
100
AcDbEntity
8
0
100
AcDbCircle
10
99.5
20
-235.00000000000003
30
0
40
2.6499999999999968
210
0
220
0
230
1
0
CIRCLE
5
163
100
AcDbEntity
8
0
100
AcDbCircle
10
99.5
20
-185.00000000000003
30
0
40
2.6499999999999968
210
0
220
0
230
1
0
CIRCLE
5
164
100
AcDbEntity
8
0
100
AcDbCircle
10
99.5
20
-135.00000000000003
30
0
40
2.6499999999999968
210
0
220
0
230
1
0
CIRCLE
5
165
100
AcDbEntity
8
0
100
AcDbCircle
10
99.5
20
-85.000000000000028
30
0
40
2.6499999999999968
210
0
220
0
230
1
0
CIRCLE
5
166
100
AcDbEntity
8
0
100
AcDbCircle
10
99.5
20
-35.000000000000043
30
0
40
2.6499999999999968
210
0
220
0
230
1
0
CIRCLE
5
167
100
AcDbEntity
8
0
100
AcDbCircle
10
49.499999999999986
20
-435.00000000000006
30
0
40
2.6499999999999968
210
0
220
0
230
1
0
CIRCLE
5
168
100
AcDbEntity
8
0
100
AcDbCircle
10
49.499999999999986
20
-385.00000000000006
30
0
40
2.6499999999999968
210
0
220
0
230
1
0
CIRCLE
5
169
100
AcDbEntity
8
0
100
AcDbCircle
10
49.499999999999986
20
-335.00000000000006
30
0
40
2.6499999999999968
210
0
220
0
230
1
0
CIRCLE
5
170
100
AcDbEntity
8
0
100
AcDbCircle
10
49.499999999999986
20
-285.00000000000006
30
0
40
2.6499999999999968
210
0
220
0
230
1
0
CIRCLE
5
171
100
AcDbEntity
8
0
100
AcDbCircle
10
49.499999999999986
20
-235.00000000000003
30
0
40
2.6499999999999968
210
0
220
0
230
1
0
CIRCLE
5
172
100
AcDbEntity
8
0
100
AcDbCircle
10
49.499999999999986
20
-185.00000000000003
30
0
40
2.6499999999999968
210
0
220
0
230
1
0
CIRCLE
5
173
100
AcDbEntity
8
0
100
AcDbCircle
10
49.499999999999986
20
-135.00000000000003
30
0
40
2.6499999999999968
210
0
220
0
230
1
0
CIRCLE
5
174
100
AcDbEntity
8
0
100
AcDbCircle
10
49.499999999999986
20
-85.000000000000028
30
0
40
2.6499999999999968
210
0
220
0
230
1
0
CIRCLE
5
175
100
AcDbEntity
8
0
100
AcDbCircle
10
49.499999999999986
20
-35.000000000000043
30
0
40
2.6499999999999968
210
0
220
0
230
1
0
CIRCLE
5
176
100
AcDbEntity
8
0
100
AcDbCircle
10
10
20
-50
30
0
40
2.6500000000000057
210
0
220
0
230
1
0
CIRCLE
5
177
100
AcDbEntity
8
0
100
AcDbCircle
10
10
20
-123.99999999999999
30
0
40
2.6500000000000057
210
0
220
0
230
1
0
CIRCLE
5
178
100
AcDbEntity
8
0
100
AcDbCircle
10
10
20
-197.99999999999997
30
0
40
2.6500000000000057
210
0
220
0
230
1
0
CIRCLE
5
179
100
AcDbEntity
8
0
100
AcDbCircle
10
10
20
-272
30
0
40
2.6500000000000057
210
0
220
0
230
1
0
CIRCLE
5
180
100
AcDbEntity
8
0
100
AcDbCircle
10
10
20
-346
30
0
40
2.6500000000000057
210
0
220
0
230
1
0
CIRCLE
5
181
100
AcDbEntity
8
0
100
AcDbCircle
10
10
20
-420
30
0
40
2.6500000000000057
210
0
220
0
230
1
0
CIRCLE
5
182
100
AcDbEntity
8
0
100
AcDbCircle
10
224.50000000000003
20
-50
30
0
40
2.6500000000000057
210
0
220
0
230
1
0
CIRCLE
5
183
100
AcDbEntity
8
0
100
AcDbCircle
10
224.50000000000003
20
-123.99999999999999
30
0
40
2.6500000000000057
210
0
220
0
230
1
0
CIRCLE
5
184
100
AcDbEntity
8
0
100
AcDbCircle
10
224.50000000000003
20
-197.99999999999997
30
0
40
2.6500000000000057
210
0
220
0
230
1
0
CIRCLE
5
185
100
AcDbEntity
8
0
100
AcDbCircle
10
224.50000000000003
20
-272
30
0
40
2.6500000000000057
210
0
220
0
230
1
0
CIRCLE
5
186
100
AcDbEntity
8
0
100
AcDbCircle
10
224.50000000000003
20
-346
30
0
40
2.6500000000000057
210
0
220
0
230
1
0
CIRCLE
5
187
100
AcDbEntity
8
0
100
AcDbCircle
10
224.50000000000003
20
-420
30
0
40
2.6500000000000057
210
0
220
0
230
1
0
CIRCLE
5
188
100
AcDbEntity
8
0
100
AcDbCircle
10
439.00000000000006
20
-50
30
0
40
2.6500000000000057
210
0
220
0
230
1
0
CIRCLE
5
189
100
AcDbEntity
8
0
100
AcDbCircle
10
439.00000000000006
20
-123.99999999999999
30
0
40
2.6500000000000057
210
0
220
0
230
1
0
CIRCLE
5
190
100
AcDbEntity
8
0
100
AcDbCircle
10
439.00000000000006
20
-197.99999999999997
30
0
40
2.6500000000000057
210
0
220
0
230
1
0
CIRCLE
5
191
100
AcDbEntity
8
0
100
AcDbCircle
10
439.00000000000006
20
-272
30
0
40
2.6500000000000057
210
0
220
0
230
1
0
CIRCLE
5
192
100
AcDbEntity
8
0
100
AcDbCircle
10
439.00000000000006
20
-346
30
0
40
2.6500000000000057
210
0
220
0
230
1
0
CIRCLE
5
193
100
AcDbEntity
8
0
100
AcDbCircle
10
439.00000000000006
20
-420
30
0
40
2.6500000000000057
210
0
220
0
230
1
0
CIRCLE
5
194
100
AcDbEntity
8
0
100
AcDbCircle
10
50.000000000000071
20
-10
30
0
40
2.6500000000000057
210
0
220
0
230
1
0
CIRCLE
5
195
100
AcDbEntity
8
0
100
AcDbCircle
10
119.80000000000007
20
-10
30
0
40
2.6500000000000057
210
0
220
0
230
1
0
CIRCLE
5
196
100
AcDbEntity
8
0
100
AcDbCircle
10
189.60000000000008
20
-10
30
0
40
2.6500000000000057
210
0
220
0
230
1
0
CIRCLE
5
197
100
AcDbEntity
8
0
100
AcDbCircle
10
259.40000000000003
20
-10
30
0
40
2.6500000000000057
210
0
220
0
230
1
0
CIRCLE
5
198
100
AcDbEntity
8
0
100
AcDbCircle
10
329.2000000000001
20
-10
30
0
40
2.6500000000000057
210
0
220
0
230
1
0
CIRCLE
5
199
100
AcDbEntity
8
0
100
AcDbCircle
10
399.00000000000006
20
-10
30
0
40
2.6500000000000057
210
0
220
0
230
1
0
CIRCLE
5
200
100
AcDbEntity
8
0
100
AcDbCircle
10
50.000000000000071
20
-460
30
0
40
2.6500000000000057
210
0
220
0
230
1
0
CIRCLE
5
201
100
AcDbEntity
8
0
100
AcDbCircle
10
119.80000000000007
20
-460
30
0
40
2.6500000000000057
210
0
220
0
230
1
0
CIRCLE
5
202
100
AcDbEntity
8
0
100
AcDbCircle
10
189.60000000000008
20
-460
30
0
40
2.6500000000000057
210
0
220
0
230
1
0
CIRCLE
5
203
100
AcDbEntity
8
0
100
AcDbCircle
10
259.40000000000003
20
-460
30
0
40
2.6500000000000057
210
0
220
0
230
1
0
CIRCLE
5
204
100
AcDbEntity
8
0
100
AcDbCircle
10
329.2000000000001
20
-460
30
0
40
2.6500000000000057
210
0
220
0
230
1
0
CIRCLE
5
205
100
AcDbEntity
8
0
100
AcDbCircle
10
399.00000000000006
20
-460
30
0
40
2.6500000000000057
210
0
220
0
230
1
0
ENDSEC
0
SECTION
2
OBJECTS
0
DICTIONARY
5
C
100
AcDbDictionary
3
ACAD_GROUP
350
D
3
ACAD_MLINESTYLE
350
17
0
DICTIONARY
5
D
100
AcDbDictionary
0
DICTIONARY
5
1A
330
C
100
AcDbDictionary
0
DICTIONARY
5
17
100
AcDbDictionary
0
ENDSEC
0
EOF
