0
SECTION
2
HEADER
9
$INSUNITS
70
4
9
$ACADVER
1
AC1014
9
$HANDSEED
5
FFFF
0
ENDSEC
0
SECTION
2
TABLES
0
TABLE
2
VPORT
5
8
100
AcDbSymbolTable
0
ENDTAB
0
TABLE
2
LTYPE
5
5
100
AcDbSymbolTable
0
LTYPE
5
14
100
AcDbSymbolTableRecord
100
AcDbLinetypeTableRecord
2
BYBLOCK
70
0
0
LTYPE
5
15
100
AcDbSymbolTableRecord
100
AcDbLinetypeTableRecord
2
BYLAYER
70
0
0
ENDTAB
0
TABLE
2
LAYER
5
2
100
AcDbSymbolTable
70
2
0
LAYER
5
50
100
AcDbSymbolTableRecord
100
AcDbLayerTableRecord
2
0
70
0
6
CONTINUOUS
0
ENDTAB
0
TABLE
2
STYLE
5
3
100
AcDbSymbolTable
70
1
0
STYLE
5
11
100
AcDbSymbolTableRecord
100
AcDbTextStyleTableRecord
2
STANDARD
70
0
0
ENDTAB
0
TABLE
2
VIEW
5
6
100
AcDbSymbolTable
70
0
0
ENDTAB
0
TABLE
2
UCS
5
7
100
AcDbSymbolTable
70
0
0
ENDTAB
0
TABLE
2
APPID
5
9
100
AcDbSymbolTable
70
2
0
APPID
5
12
100
AcDbSymbolTableRecord
100
AcDbRegAppTableRecord
2
ACAD
70
0
0
ENDTAB
0
TABLE
2
DIMSTYLE
5
A
100
AcDbSymbolTable
70
1
0
ENDTAB
0
TABLE
2
BLOCK_RECORD
5
1
100
AcDbSymbolTable
70
1
0
BLOCK_RECORD
5
1F
100
AcDbSymbolTableRecord
100
AcDbBlockTableRecord
2
*MODEL_SPACE
0
BLOCK_RECORD
5
1B
100
AcDbSymbolTableRecord
100
AcDbBlockTableRecord
2
*PAPER_SPACE
0
ENDTAB
0
ENDSEC
0
SECTION
2
BLOCKS
0
BLOCK
5
20
100
AcDbEntity
100
AcDbBlockBegin
2
*MODEL_SPACE
0
ENDBLK
5
21
100
AcDbEntity
100
AcDbBlockEnd
0
BLOCK
5
1C
100
AcDbEntity
100
AcDbBlockBegin
2
*PAPER_SPACE
0
ENDBLK
5
1D
100
AcDbEntity
100
AcDbBlockEnd
0
ENDSEC
0
SECTION
2
ENTITIES
0
CIRCLE
5
100
100
AcDbEntity
8
0
100
AcDbCircle
10
224.49999999980429
20
569.00000000000023
30
0
40
2.6500000000000057
210
-1.6155871338931606e-27
220
-1.1618884519183666e-52
230
1
0
CIRCLE
5
101
100
AcDbEntity
8
0
100
AcDbCircle
10
224.49999999980429
20
457.99999999999773
30
0
40
2.6500000000000057
210
-1.6155871338931606e-27
220
-1.1618884519183666e-52
230
1
0
CIRCLE
5
102
100
AcDbEntity
8
0
100
AcDbCircle
10
438.99999999980429
20
438.00000000000017
30
0
40
2.6500000000000012
210
-5.2844150047333948e-40
220
-3.8004144996799078e-65
230
1
0
CIRCLE
5
103
100
AcDbEntity
8
0
100
AcDbCircle
10
438.99999999980429
20
318.66666666666686
30
2.2204460492503131e-15
40
2.6500000000000012
210
-5.2844150047333948e-40
220
-3.8004144996799078e-65
230
1
0
CIRCLE
5
104
100
AcDbEntity
8
0
100
AcDbCircle
10
438.99999999980429
20
199.33333333333348
30
2.2204460492503131e-15
40
2.6500000000000012
210
-5.2844150047333948e-40
220
-3.8004144996799078e-65
230
1
0
CIRCLE
5
105
100
AcDbEntity
8
0
100
AcDbCircle
10
348.99999999980417
20
569.00000000000023
30
0
40
2.6500000000000057
210
-1.6155871338931606e-27
220
-1.1618884519183666e-52
230
1
0
CIRCLE
5
106
100
AcDbEntity
8
0
100
AcDbCircle
10
418.99999999980429
20
60.000000000000149
30
0
40
2.6500000000000012
210
-5.2844150047333948e-40
220
-3.8004144996799078e-65
230
1
0
CIRCLE
5
107
100
AcDbEntity
8
0
100
AcDbCircle
10
438.99999999980429
20
80.000000000000142
30
2.2204460492503131e-15
40
2.6500000000000012
210
-5.2844150047333948e-40
220
-3.8004144996799078e-65
230
1
0
CIRCLE
5
108
100
AcDbEntity
8
0
100
AcDbCircle
10
351.74999999978149
20
60.000000000000149
30
0
40
2.6500000000000057
210
-1.6155871338931606e-27
220
-1.1618884519183666e-52
230
1
0
CIRCLE
5
109
100
AcDbEntity
8
0
100
AcDbCircle
10
284.49999999975859
20
60.000000000000149
30
2.2204460492503131e-15
40
2.6500000000000057
210
-1.6155871338931606e-27
220
-1.1618884519183666e-52
230
1
0
CIRCLE
5
110
100
AcDbEntity
8
0
100
AcDbCircle
10
284.49999999975859
20
146.99999999993986
30
0
40
2.6500000000000057
210
-1.6155871338931606e-27
220
-1.1618884519183666e-52
230
1
0
CIRCLE
5
111
100
AcDbEntity
8
0
100
AcDbCircle
10
379.49999999975859
20
146.99999999993986
30
-2.2204460492503131e-15
40
2.6499999999999968
210
-5.284415004733394e-40
220
-3.800414499679907e-65
230
1
0
CIRCLE
5
112
100
AcDbEntity
8
0
100
AcDbCircle
10
348.99999999980417
20
457.99999999999773
30
2.2204460492503131e-15
40
2.6500000000000057
210
-1.6155871338931606e-27
220
-1.1618884519183666e-52
230
1
0
LWPOLYLINE
5
113
100
AcDbEntity
8
0
100
AcDbPolyline
90
44
70
1
43
0.0
10
182.20648185839769
20
157.74999999993983
10
266.79351814121082
20
157.74999999993983
42
0.14564287969330217
10
268.98060612015951
20
158.40087381952532
42
-0.81189345618416675
10
275.90087381936991
20
151.48060612033103
42
0.14564287969270917
10
275.24999999978957
20
149.29351814139014
10
275.24999999975859
20
54.750000000000156
42
0.41421356237309509
10
279.24999999975853
20
50.750000000000156
10
424.24999999980434
20
50.750000000000163
42
0.41421356237308854
10
428.24999999980429
20
54.750000000000149
10
428.24999999980429
20
62.293518141415277
42
0.14564287969389997
10
427.59912618024487
20
64.480606120371789
42
-0.81189345618610653
10
434.51939387944253
20
71.400873819585627
42
0.14564287969329998
10
436.70648185839116
20
70.750000000000185
10
444.24999999980429
20
70.750000000000156
42
0.41421356237309509
10
448.24999999980429
20
74.750000000000171
10
448.24999999980429
20
443.24999999999767
42
0.41421356237309509
10
444.24999999980429
20
447.24999999999767
10
366.70648185839099
20
447.24999999999767
42
0.1456428796933032
10
364.51939387944236
20
446.59912618041227
42
-0.8118934561860961
10
357.59912618024464
20
453.51939387962608
42
0.14564287969390402
10
358.24999999983515
20
455.70648185858266
10
358.24999999980412
20
574.25000000000023
42
0.41421356237309509
10
354.24999999980412
20
578.25000000000023
10
94.749999999804402
20
578.25000000000023
42
0.4142135623730937
10
90.74999999980443
20
574.25000000000023
10
90.749999999804373
20
455.70648185858261
42
0.14564287969391063
10
91.400873819363852
20
453.51939387962608
42
-0.81189345618609154
10
84.480606120166215
20
446.59912618041227
42
0.14564287969330153
10
82.293518141217561
20
447.24999999999773
10
4.7499999998042419
20
447.24999999999767
42
0.4142135623730937
10
0.7499999998042739
20
443.24999999999767
10
0.74999999980424337
20
74.750000000000156
42
0.41421356237309342
10
4.7499999998042473
20
70.750000000000171
10
12.293518141217422
20
70.750000000000156
42
0.145642879693306
10
14.480606120166083
20
71.400873819585641
42
-0.81189345618610487
10
21.400873819363735
20
64.480606120371803
42
0.14564287969390266
10
20.749999999773173
20
62.293518141415277
10
20.749999999804242
20
54.750000000000163
42
0.41421356237309337
10
24.749999999804228
20
50.750000000000163
10
169.74999999985002
20
50.750000000000163
42
0.41421356237309637
10
173.74999999984999
20
54.750000000000163
10
173.74999999984999
20
149.29351814139014
42
0.14564287969268747
10
173.09912618023858
20
151.480606120331
42
-0.8118934561841723
10
180.01939387944904
20
158.40087381952529
42
0.14564287969329401
0
CIRCLE
5
114
100
AcDbEntity
8
0
100
AcDbCircle
10
99.999999999804388
20
457.99999999999773
30
2.2204460492503131e-15
40
2.6500000000000057
210
-1.6155871338931606e-27
220
-1.1618883315422507e-52
230
1
0
CIRCLE
5
115
100
AcDbEntity
8
0
100
AcDbCircle
10
69.499999999849976
20
146.99999999993986
30
0
40
2.6499999999999968
210
-5.2844144572476582e-40
220
-3.8004137122048065e-65
230
1
0
CIRCLE
5
116
100
AcDbEntity
8
0
100
AcDbCircle
10
164.49999999984996
20
146.99999999993986
30
0
40
2.6500000000000057
210
-1.6155871338931606e-27
220
-1.1618883315422507e-52
230
1
0
CIRCLE
5
117
100
AcDbEntity
8
0
100
AcDbCircle
10
164.49999999984996
20
60.000000000000149
30
2.2204460492503131e-15
40
2.6500000000000057
210
-1.6155871338931606e-27
220
-1.1618883315422507e-52
230
1
0
CIRCLE
5
118
100
AcDbEntity
8
0
100
AcDbCircle
10
97.249999999827111
20
60.000000000000149
30
2.2204460492503131e-15
40
2.6500000000000057
210
-1.6155871338931606e-27
220
-1.1618883315422507e-52
230
1
0
CIRCLE
5
119
100
AcDbEntity
8
0
100
AcDbCircle
10
9.999999999804249
20
80.000000000000142
30
0
40
2.6500000000000012
210
-5.284414457247659e-40
220
-3.8004137122048073e-65
230
1
0
CIRCLE
5
120
100
AcDbEntity
8
0
100
AcDbCircle
10
29.999999999804249
20
60.000000000000149
30
0
40
2.6500000000000012
210
-5.284414457247659e-40
220
-3.8004137122048073e-65
230
1
0
CIRCLE
5
121
100
AcDbEntity
8
0
100
AcDbCircle
10
99.999999999804388
20
569.00000000000023
30
0
40
2.6500000000000057
210
-1.6155871338931606e-27
220
-1.1618883315422507e-52
230
1
0
CIRCLE
5
122
100
AcDbEntity
8
0
100
AcDbCircle
10
9.999999999804249
20
199.33333333333348
30
0
40
2.6500000000000012
210
-5.284414457247659e-40
220
-3.8004137122048073e-65
230
1
0
CIRCLE
5
123
100
AcDbEntity
8
0
100
AcDbCircle
10
9.999999999804249
20
318.66666666666686
30
0
40
2.6500000000000012
210
-5.284414457247659e-40
220
-3.8004137122048073e-65
230
1
0
CIRCLE
5
124
100
AcDbEntity
8
0
100
AcDbCircle
10
9.999999999804249
20
438.00000000000017
30
-2.2204460492503131e-15
40
2.6500000000000012
210
-5.284414457247659e-40
220
-3.8004137122048073e-65
230
1
0
ENDSEC
0
SECTION
2
OBJECTS
0
DICTIONARY
5
C
100
AcDbDictionary
3
ACAD_GROUP
350
D
3
ACAD_MLINESTYLE
350
17
0
DICTIONARY
5
D
100
AcDbDictionary
0
DICTIONARY
5
1A
330
C
100
AcDbDictionary
0
DICTIONARY
5
17
100
AcDbDictionary
0
ENDSEC
0
EOF
