0
SECTION
2
HEADER
9
$INSUNITS
70
4
9
$ACADVER
1
AC1014
9
$HANDSEED
5
FFFF
0
ENDSEC
0
SECTION
2
TABLES
0
TABLE
2
VPORT
5
8
100
AcDbSymbolTable
0
ENDTAB
0
TABLE
2
LTYPE
5
5
100
AcDbSymbolTable
0
LTYPE
5
14
100
AcDbSymbolTableRecord
100
AcDbLinetypeTableRecord
2
BYBLOCK
70
0
0
LTYPE
5
15
100
AcDbSymbolTableRecord
100
AcDbLinetypeTableRecord
2
BYLAYER
70
0
0
ENDTAB
0
TABLE
2
LAYER
5
2
100
AcDbSymbolTable
70
2
0
LAYER
5
50
100
AcDbSymbolTableRecord
100
AcDbLayerTableRecord
2
0
70
0
6
CONTINUOUS
0
ENDTAB
0
TABLE
2
STYLE
5
3
100
AcDbSymbolTable
70
1
0
STYLE
5
11
100
AcDbSymbolTableRecord
100
AcDbTextStyleTableRecord
2
STANDARD
70
0
0
ENDTAB
0
TABLE
2
VIEW
5
6
100
AcDbSymbolTable
70
0
0
ENDTAB
0
TABLE
2
UCS
5
7
100
AcDbSymbolTable
70
0
0
ENDTAB
0
TABLE
2
APPID
5
9
100
AcDbSymbolTable
70
2
0
APPID
5
12
100
AcDbSymbolTableRecord
100
AcDbRegAppTableRecord
2
ACAD
70
0
0
ENDTAB
0
TABLE
2
DIMSTYLE
5
A
100
AcDbSymbolTable
70
1
0
ENDTAB
0
TABLE
2
BLOCK_RECORD
5
1
100
AcDbSymbolTable
70
1
0
BLOCK_RECORD
5
1F
100
AcDbSymbolTableRecord
100
AcDbBlockTableRecord
2
*MODEL_SPACE
0
BLOCK_RECORD
5
1B
100
AcDbSymbolTableRecord
100
AcDbBlockTableRecord
2
*PAPER_SPACE
0
ENDTAB
0
ENDSEC
0
SECTION
2
BLOCKS
0
BLOCK
5
20
100
AcDbEntity
100
AcDbBlockBegin
2
*MODEL_SPACE
0
ENDBLK
5
21
100
AcDbEntity
100
AcDbBlockEnd
0
BLOCK
5
1C
100
AcDbEntity
100
AcDbBlockBegin
2
*PAPER_SPACE
0
ENDBLK
5
1D
100
AcDbEntity
100
AcDbBlockEnd
0
ENDSEC
0
SECTION
2
ENTITIES
0
CIRCLE
5
100
100
AcDbEntity
8
0
100
AcDbCircle
10
-348.99999999999591
20
-420
30
0
40
2.6500000000000057
210
-0
220
0
230
1
0
CIRCLE
5
101
100
AcDbEntity
8
0
100
AcDbCircle
10
-265.99999999999591
20
-420
30
0
40
2.6500000000000057
210
-0
220
0
230
1
0
CIRCLE
5
102
100
AcDbEntity
8
0
100
AcDbCircle
10
-438.99999999999602
20
-420
30
0
40
2.6500000000000012
210
-0
220
0
230
1
0
CIRCLE
5
103
100
AcDbEntity
8
0
100
AcDbCircle
10
-393.99999999999602
20
-420
30
0
40
2.6499999999999968
210
-0
220
0
230
1
0
CIRCLE
5
104
100
AcDbEntity
8
0
100
AcDbCircle
10
-438.99999999999602
20
-375
30
0
40
2.6500000000000012
210
-0
220
0
230
1
0
CIRCLE
5
105
100
AcDbEntity
8
0
100
AcDbCircle
10
-438.99999999999602
20
-329.99999999999994
30
0
40
2.649999999999999
210
-0
220
0
230
1
0
LWPOLYLINE
5
106
100
AcDbEntity
8
0
100
AcDbPolyline
90
28
70
1
43
0.0
10
-3.7499999999958629
20
-449.25
42
0.4142135623730992
10
-0.74999999999584843
20
-446.25
10
-0.74999999999587064
20
-323
42
0.41421356237309703
10
-3.7499999999958797
20
-320
10
-18.757359312876588
20
-320
42
0.1989123673796411
10
-20.878679656436216
20
-320.87867965644023
10
-109.12132034355568
20
-409.12132034355966
42
-0.19891236737965695
10
-111.24264068711531
20
-410
10
-337.75735931287659
20
-410
42
-0.19891236737965359
10
-339.87867965643613
20
-409.12132034355972
10
-428.12132034355562
20
-320.87867965644028
42
0.19891236737965798
10
-430.24264068711534
20
-319.99999999999994
10
-445.24999999999602
20
-320
42
0.41421356237309509
10
-448.24999999999596
20
-323
10
-448.24999999999596
20
-446.25
42
0.41421356237309509
10
-445.24999999999602
20
-449.25
10
-436.24094362106462
20
-449.25
42
0.15128740603528951
10
-434.54554292028666
20
-448.72499827551496
42
-0.84236985830880662
10
-427.67620315711889
20
-455.79086556755749
42
0.15850761788559439
10
-428.24999999999602
20
-457.55538766726801
10
-428.24999999999596
20
-467
42
0.41421356237309509
10
-425.24999999999602
20
-470
10
-23.749999999995879
20
-470
42
0.4142135623731007
10
-20.74999999999585
20
-467
10
-20.749999999995872
20
-457.55538766726801
42
0.15850761788558901
10
-21.323796842873062
20
-455.79086556755749
42
-0.84236985830880162
10
-14.454457079705143
20
-448.72499827551502
42
0.15128740603527052
10
-12.759056378927244
20
-449.25
0
CIRCLE
5
107
100
AcDbEntity
8
0
100
AcDbCircle
10
-9.9999999999958682
20
-329.99999999999994
30
0
40
2.649999999999999
210
-0
220
0
230
1
0
CIRCLE
5
108
100
AcDbEntity
8
0
100
AcDbCircle
10
-9.9999999999958664
20
-375
30
0
40
2.6500000000000012
210
-0
220
0
230
1
0
CIRCLE
5
109
100
AcDbEntity
8
0
100
AcDbCircle
10
-54.999999999995843
20
-420
30
0
40
2.6499999999999968
210
-0
220
0
230
1
0
CIRCLE
5
110
100
AcDbEntity
8
0
100
AcDbCircle
10
-9.9999999999958664
20
-420
30
0
40
2.6500000000000012
210
-0
220
0
230
1
0
CIRCLE
5
111
100
AcDbEntity
8
0
100
AcDbCircle
10
-182.99999999999599
20
-420
30
0
40
2.6500000000000057
210
-0
220
0
230
1
0
CIRCLE
5
112
100
AcDbEntity
8
0
100
AcDbCircle
10
-99.99999999999595
20
-420
30
0
40
2.6500000000000057
210
-0
220
0
230
1
0
LWPOLYLINE
5
113
100
AcDbEntity
8
0
100
AcDbPolyline
90
4
70
1
43
0.0
10
-246.55999998060378
20
-457.34999997243392
42
0.99999999999999989
10
-246.55999998060383
20
-462.6499999724216
10
-231.55999998060378
20
-462.6499999724216
42
0.99999999999999989
10
-231.55999998060378
20
-457.34999997243392
0
CIRCLE
5
114
100
AcDbEntity
8
0
100
AcDbCircle
10
-266.55999998060378
20
-459.99999997269981
30
0
40
2.6500000000000057
210
-0
220
0
230
1
0
CIRCLE
5
115
100
AcDbEntity
8
0
100
AcDbCircle
10
-351.17999998060361
20
-459.99999997353257
30
0
40
2.6500000000000057
210
-0
220
0
230
1
0
LWPOLYLINE
5
116
100
AcDbEntity
8
0
100
AcDbPolyline
90
4
70
1
43
0.0
10
-331.17999998060378
20
-457.34999997319346
42
0.99999999999999989
10
-331.17999998060378
20
-462.64999997333291
10
-316.17999998060378
20
-462.64999997333291
42
0.99999999999999989
10
-316.17999998060378
20
-457.34999997319346
0
LWPOLYLINE
5
117
100
AcDbEntity
8
0
100
AcDbPolyline
90
4
70
1
43
0.0
10
-301.55999998060383
20
-457.3499999729022
42
0.99999999999999989
10
-301.55999998060389
20
-462.64999997304159
10
-286.55999998060383
20
-462.64999997304159
42
0.99999999999999989
10
-286.55999998060383
20
-457.3499999729022
0
LWPOLYLINE
5
118
100
AcDbEntity
8
0
100
AcDbPolyline
90
4
70
1
43
0.0
10
-371.1799999806035
20
-462.64999997387173
42
0.99999999999999989
10
-371.17999998060361
20
-457.34999997373228
10
-386.1799999806035
20
-457.34999997373228
42
0.99999999999999989
10
-386.1799999806035
20
-462.64999997387173
0
CIRCLE
5
119
100
AcDbEntity
8
0
100
AcDbCircle
10
-398.99999999999591
20
-460
30
0
40
2.6500000000000057
210
-0
220
0
230
1
0
CIRCLE
5
120
100
AcDbEntity
8
0
100
AcDbCircle
10
-49.999999999995936
20
-460
30
0
40
2.6500000000000057
210
-0
220
0
230
1
0
LWPOLYLINE
5
121
100
AcDbEntity
8
0
100
AcDbPolyline
90
4
70
1
43
0.0
10
-77.820000019388388
20
-457.34999997373228
42
0.99999999999999989
10
-77.820000019388388
20
-462.64999997387173
10
-62.820000019388388
20
-462.64999997387173
42
0.99999999999999989
10
-62.820000019388388
20
-457.34999997373228
0
LWPOLYLINE
5
122
100
AcDbEntity
8
0
100
AcDbPolyline
90
4
70
1
43
0.0
10
-147.44000001938809
20
-462.64999997304159
42
0.99999999999999989
10
-147.44000001938809
20
-457.3499999729022
10
-162.44000001938809
20
-457.3499999729022
42
0.99999999999999989
10
-162.44000001938809
20
-462.64999997304159
0
LWPOLYLINE
5
123
100
AcDbEntity
8
0
100
AcDbPolyline
90
4
70
1
43
0.0
10
-117.82000001938809
20
-462.64999997333291
42
0.99999999999999989
10
-117.82000001938809
20
-457.34999997319346
10
-132.82000001938809
20
-457.34999997319346
42
0.99999999999999989
10
-132.82000001938809
20
-462.64999997333291
0
CIRCLE
5
124
100
AcDbEntity
8
0
100
AcDbCircle
10
-97.820000019388246
20
-459.99999997353257
30
0
40
2.6500000000000057
210
-0
220
0
230
1
0
CIRCLE
5
125
100
AcDbEntity
8
0
100
AcDbCircle
10
-182.44000001938812
20
-459.99999997269981
30
0
40
2.6500000000000057
210
-0
220
0
230
1
0
LWPOLYLINE
5
126
100
AcDbEntity
8
0
100
AcDbPolyline
90
4
70
1
43
0.0
10
-202.44000001938812
20
-462.6499999724216
42
0.99999999999999989
10
-202.44000001938812
20
-457.34999997243392
10
-217.44000001938812
20
-457.34999997243392
42
0.99999999999999989
10
-217.44000001938812
20
-462.6499999724216
0
ENDSEC
0
SECTION
2
OBJECTS
0
DICTIONARY
5
C
100
AcDbDictionary
3
ACAD_GROUP
350
D
3
ACAD_MLINESTYLE
350
17
0
DICTIONARY
5
D
100
AcDbDictionary
0
DICTIONARY
5
1A
330
C
100
AcDbDictionary
0
DICTIONARY
5
17
100
AcDbDictionary
0
ENDSEC
0
EOF
