0
SECTION
2
HEADER
9
$INSUNITS
70
4
9
$ACADVER
1
AC1014
9
$HANDSEED
5
FFFF
0
ENDSEC
0
SECTION
2
TABLES
0
TABLE
2
VPORT
5
8
100
AcDbSymbolTable
0
ENDTAB
0
TABLE
2
LTYPE
5
5
100
AcDbSymbolTable
0
LTYPE
5
14
100
AcDbSymbolTableRecord
100
AcDbLinetypeTableRecord
2
BYBLOCK
70
0
0
LTYPE
5
15
100
AcDbSymbolTableRecord
100
AcDbLinetypeTableRecord
2
BYLAYER
70
0
0
ENDTAB
0
TABLE
2
LAYER
5
2
100
AcDbSymbolTable
70
2
0
LAYER
5
50
100
AcDbSymbolTableRecord
100
AcDbLayerTableRecord
2
0
70
0
6
CONTINUOUS
0
ENDTAB
0
TABLE
2
STYLE
5
3
100
AcDbSymbolTable
70
1
0
STYLE
5
11
100
AcDbSymbolTableRecord
100
AcDbTextStyleTableRecord
2
STANDARD
70
0
0
ENDTAB
0
TABLE
2
VIEW
5
6
100
AcDbSymbolTable
70
0
0
ENDTAB
0
TABLE
2
UCS
5
7
100
AcDbSymbolTable
70
0
0
ENDTAB
0
TABLE
2
APPID
5
9
100
AcDbSymbolTable
70
2
0
APPID
5
12
100
AcDbSymbolTableRecord
100
AcDbRegAppTableRecord
2
ACAD
70
0
0
ENDTAB
0
TABLE
2
DIMSTYLE
5
A
100
AcDbSymbolTable
70
1
0
ENDTAB
0
TABLE
2
BLOCK_RECORD
5
1
100
AcDbSymbolTable
70
1
0
BLOCK_RECORD
5
1F
100
AcDbSymbolTableRecord
100
AcDbBlockTableRecord
2
*MODEL_SPACE
0
BLOCK_RECORD
5
1B
100
AcDbSymbolTableRecord
100
AcDbBlockTableRecord
2
*PAPER_SPACE
0
ENDTAB
0
ENDSEC
0
SECTION
2
BLOCKS
0
BLOCK
5
20
100
AcDbEntity
100
AcDbBlockBegin
2
*MODEL_SPACE
0
ENDBLK
5
21
100
AcDbEntity
100
AcDbBlockEnd
0
BLOCK
5
1C
100
AcDbEntity
100
AcDbBlockBegin
2
*PAPER_SPACE
0
ENDBLK
5
1D
100
AcDbEntity
100
AcDbBlockEnd
0
ENDSEC
0
SECTION
2
ENTITIES
0
LWPOLYLINE
5
100
100
AcDbEntity
8
0
100
AcDbPolyline
90
8
70
1
43
0.0
10
3.0000000044337902
20
603.99999999999966
42
0.41421356237309881
10
4.433818312499227e-09
20
600.99999999999977
10
4.4338249738373747e-09
20
2.9999999999996874
42
0.4142135623730871
10
3.0000000044337898
20
-2.658984143977256e-13
10
467.00000000443379
20
-2.6589841439772499e-13
42
0.41421356237309631
10
470.00000000443379
20
2.999999999999706
10
470.00000000443379
20
600.99999999999977
42
0.41421356237310886
10
467.00000000443379
20
603.99999999999977
0
LWPOLYLINE
5
101
100
AcDbEntity
8
0
100
AcDbPolyline
90
4
70
1
43
0.0
10
196.65000000443794
20
62.500000000009464
10
196.6500000044297
20
57.500000000009486
42
-0.99999999999999989
10
191.35000000443793
20
57.499999999989996
10
191.3500000044296
20
62.499999999990017
42
-0.99999999999999989
0
LWPOLYLINE
5
102
100
AcDbEntity
8
0
100
AcDbPolyline
90
4
70
1
43
0.0
10
114.65000000443797
20
496.49999999998965
10
114.65000000427762
20
491.49999999998977
42
-0.99999999999999989
10
109.35000000458992
20
491.50000000000995
10
109.35000000442966
20
496.50000000000989
42
-0.99999999999999989
0
LWPOLYLINE
5
103
100
AcDbEntity
8
0
100
AcDbPolyline
90
4
70
1
43
0.0
10
442.65000000443791
20
496.49999999998965
10
442.65000000427762
20
491.49999999998977
42
-0.99999999999999989
10
437.35000000458996
20
491.50000000000995
10
437.35000000442966
20
496.50000000000972
42
-0.99999999999999989
0
LWPOLYLINE
5
104
100
AcDbEntity
8
0
100
AcDbPolyline
90
4
70
1
43
0.0
10
442.65000000443791
20
62.500000000009464
10
442.65000000442967
20
57.500000000009486
42
-0.99999999999999989
10
437.3500000044379
20
57.499999999989996
10
437.35000000442966
20
62.499999999990017
42
-0.99999999999999989
0
LWPOLYLINE
5
105
100
AcDbEntity
8
0
100
AcDbPolyline
90
4
70
1
43
0.0
10
278.65000000443786
20
62.500000000009464
10
278.65000000442967
20
57.500000000009486
42
-0.99999999999999989
10
273.3500000044379
20
57.499999999989996
10
273.35000000442966
20
62.499999999990017
42
-0.99999999999999989
0
LWPOLYLINE
5
106
100
AcDbEntity
8
0
100
AcDbPolyline
90
4
70
1
43
0.0
10
196.65000000443786
20
571.4999999999693
10
196.65000000433042
20
566.4999999999693
42
-0.99999999999999989
10
191.35000000453712
20
566.50000000003035
10
191.35000000442969
20
571.50000000003001
42
-0.99999999999999989
0
LWPOLYLINE
5
107
100
AcDbEntity
8
0
100
AcDbPolyline
90
4
70
1
43
0.0
10
196.650000004438
20
496.49999999998965
10
196.65000000427764
20
491.49999999998977
42
-0.99999999999999989
10
191.3500000045899
20
491.50000000000995
10
191.35000000442969
20
496.50000000000972
42
-0.99999999999999989
0
LWPOLYLINE
5
108
100
AcDbEntity
8
0
100
AcDbPolyline
90
4
70
1
43
0.0
10
32.650000004437942
20
496.49999999998965
10
32.650000004277572
20
491.49999999998977
42
-0.99999999999999989
10
27.350000004589884
20
491.50000000000995
10
27.350000004429621
20
496.50000000000989
42
-0.99999999999999989
0
LWPOLYLINE
5
109
100
AcDbEntity
8
0
100
AcDbPolyline
90
4
70
1
43
0.0
10
32.650000004437871
20
62.500000000009464
10
32.650000004429643
20
57.500000000009486
42
-0.99999999999999989
10
27.350000004437863
20
57.499999999989996
10
27.350000004429621
20
62.499999999990017
42
-0.99999999999999989
0
LWPOLYLINE
5
110
100
AcDbEntity
8
0
100
AcDbPolyline
90
4
70
1
43
0.0
10
278.65000000443797
20
496.49999999998965
10
278.65000000427762
20
491.49999999998977
42
-0.99999999999999989
10
273.35000000458996
20
491.50000000000995
10
273.35000000442966
20
496.50000000000989
42
-0.99999999999999989
0
LWPOLYLINE
5
111
100
AcDbEntity
8
0
100
AcDbPolyline
90
4
70
1
43
0.0
10
114.65000000443791
20
62.500000000009464
10
114.65000000442967
20
57.500000000009486
42
-0.99999999999999989
10
109.3500000044379
20
57.499999999989996
10
109.35000000442966
20
62.499999999990017
42
-0.99999999999999989
0
CIRCLE
5
112
100
AcDbEntity
8
0
100
AcDbCircle
10
460.00000000443379
20
9.9999999999997335
30
0
40
2.6500000000000057
210
-3.3941879624296822e-42
220
9.8607613152626476e-32
230
1
0
CIRCLE
5
113
100
AcDbEntity
8
0
100
AcDbCircle
10
460.00000000443379
20
107.33333333333307
30
0
40
2.6500000000000057
210
-3.3941879624296822e-42
220
9.8607613152626476e-32
230
1
0
CIRCLE
5
114
100
AcDbEntity
8
0
100
AcDbCircle
10
460.00000000443379
20
204.66666666666643
30
7.1054273576010019e-14
40
2.6500000000000057
210
-3.3941879624296822e-42
220
9.8607613152626476e-32
230
1
0
CIRCLE
5
115
100
AcDbEntity
8
0
100
AcDbCircle
10
460.00000000443379
20
301.99999999999977
30
7.1054273576010019e-14
40
2.6500000000000057
210
-3.3941879624296822e-42
220
9.8607613152626476e-32
230
1
0
CIRCLE
5
116
100
AcDbEntity
8
0
100
AcDbCircle
10
460.00000000443379
20
399.33333333333309
30
0
40
2.6500000000000057
210
-3.3941879624296822e-42
220
9.8607613152626476e-32
230
1
0
CIRCLE
5
117
100
AcDbEntity
8
0
100
AcDbCircle
10
460.00000000443379
20
593.99999999999977
30
0
40
2.6500000000000057
210
-3.3941879624296822e-42
220
9.8607613152626476e-32
230
1
0
CIRCLE
5
118
100
AcDbEntity
8
0
100
AcDbCircle
10
10.000000004433819
20
9.9999999999997335
30
0
40
2.6500000000000057
210
-3.3941879624296822e-42
220
9.8607613152626476e-32
230
1
0
CIRCLE
5
119
100
AcDbEntity
8
0
100
AcDbCircle
10
10.000000004433819
20
107.33333333333307
30
0
40
2.6500000000000057
210
-3.3941879624296822e-42
220
9.8607613152626476e-32
230
1
0
CIRCLE
5
120
100
AcDbEntity
8
0
100
AcDbCircle
10
10.000000004433819
20
204.66666666666643
30
0
40
2.6500000000000057
210
-3.3941879624296822e-42
220
9.8607613152626476e-32
230
1
0
CIRCLE
5
121
100
AcDbEntity
8
0
100
AcDbCircle
10
10.000000004433819
20
301.99999999999977
30
7.1054273576010019e-14
40
2.6500000000000057
210
-3.3941879624296822e-42
220
9.8607613152626476e-32
230
1
0
CIRCLE
5
122
100
AcDbEntity
8
0
100
AcDbCircle
10
10.000000004433819
20
399.33333333333309
30
0
40
2.6500000000000057
210
-3.3941879624296822e-42
220
9.8607613152626476e-32
230
1
0
CIRCLE
5
123
100
AcDbEntity
8
0
100
AcDbCircle
10
10.000000004433819
20
496.6666666666664
30
0
40
2.6500000000000057
210
-3.3941879624296822e-42
220
9.8607613152626476e-32
230
1
0
LWPOLYLINE
5
124
100
AcDbEntity
8
0
100
AcDbPolyline
90
4
70
1
43
0.0
10
442.65000000443791
20
571.4999999999693
10
442.65000000433048
20
566.4999999999693
42
-0.99999999999999989
10
437.35000000453709
20
566.50000000003035
10
437.35000000442966
20
571.50000000003001
42
-0.99999999999999989
0
CIRCLE
5
125
100
AcDbEntity
8
0
100
AcDbCircle
10
10.000000004433819
20
593.99999999999977
30
0
40
2.6500000000000057
210
-3.3941879624296822e-42
220
9.8607613152626476e-32
230
1
0
CIRCLE
5
126
100
AcDbEntity
8
0
100
AcDbCircle
10
460.00000000443379
20
496.6666666666664
30
0
40
2.6500000000000057
210
-3.3941879624296822e-42
220
9.8607613152626476e-32
230
1
0
LWPOLYLINE
5
127
100
AcDbEntity
8
0
100
AcDbPolyline
90
4
70
1
43
0.0
10
360.65000000443786
20
571.4999999999693
10
360.65000000433042
20
566.4999999999693
42
-0.99999999999999989
10
355.35000000453704
20
566.50000000003035
10
355.3500000044296
20
571.50000000003001
42
-0.99999999999999989
0
LWPOLYLINE
5
128
100
AcDbEntity
8
0
100
AcDbPolyline
90
4
70
1
43
0.0
10
360.65000000443786
20
496.49999999998965
10
360.65000000427756
20
491.49999999998977
42
-0.99999999999999989
10
355.3500000045899
20
491.50000000000995
10
355.3500000044296
20
496.50000000000972
42
-0.99999999999999989
0
LWPOLYLINE
5
129
100
AcDbEntity
8
0
100
AcDbPolyline
90
4
70
1
43
0.0
10
278.65000000443786
20
571.4999999999693
10
278.65000000433048
20
566.49999999996919
42
-0.99999999999999989
10
273.35000000453704
20
566.50000000003035
10
273.35000000442966
20
571.5000000000299
42
-0.99999999999999989
0
LWPOLYLINE
5
130
100
AcDbEntity
8
0
100
AcDbPolyline
90
4
70
1
43
0.0
10
360.65000000443786
20
62.500000000009464
10
360.65000000442967
20
57.500000000009486
42
-0.99999999999999989
10
355.3500000044379
20
57.499999999989996
10
355.3500000044296
20
62.499999999990017
42
-0.99999999999999989
0
LWPOLYLINE
5
131
100
AcDbEntity
8
0
100
AcDbPolyline
90
4
70
1
43
0.0
10
32.6500000044378
20
571.4999999999693
10
32.650000004330366
20
566.4999999999693
42
-0.99999999999999989
10
27.350000004537019
20
566.50000000003035
10
27.350000004429621
20
571.5000000000299
42
-0.99999999999999989
0
LWPOLYLINE
5
132
100
AcDbEntity
8
0
100
AcDbPolyline
90
4
70
1
43
0.0
10
114.65000000443783
20
571.4999999999693
10
114.65000000433039
20
566.4999999999693
42
-0.99999999999999989
10
109.35000000453705
20
566.50000000003035
10
109.35000000442966
20
571.5000000000299
42
-0.99999999999999989
0
ENDSEC
0
SECTION
2
OBJECTS
0
DICTIONARY
5
C
100
AcDbDictionary
3
ACAD_GROUP
350
D
3
ACAD_MLINESTYLE
350
17
0
DICTIONARY
5
D
100
AcDbDictionary
0
DICTIONARY
5
1A
330
C
100
AcDbDictionary
0
DICTIONARY
5
17
100
AcDbDictionary
0
ENDSEC
0
EOF
