0
SECTION
2
HEADER
9
$INSUNITS
70
4
9
$ACADVER
1
AC1014
9
$HANDSEED
5
FFFF
0
ENDSEC
0
SECTION
2
TABLES
0
TABLE
2
VPORT
5
8
100
AcDbSymbolTable
0
ENDTAB
0
TABLE
2
LTYPE
5
5
100
AcDbSymbolTable
0
LTYPE
5
14
100
AcDbSymbolTableRecord
100
AcDbLinetypeTableRecord
2
BYBLOCK
70
0
0
LTYPE
5
15
100
AcDbSymbolTableRecord
100
AcDbLinetypeTableRecord
2
BYLAYER
70
0
0
ENDTAB
0
TABLE
2
LAYER
5
2
100
AcDbSymbolTable
70
2
0
LAYER
5
50
100
AcDbSymbolTableRecord
100
AcDbLayerTableRecord
2
0
70
0
6
CONTINUOUS
0
ENDTAB
0
TABLE
2
STYLE
5
3
100
AcDbSymbolTable
70
1
0
STYLE
5
11
100
AcDbSymbolTableRecord
100
AcDbTextStyleTableRecord
2
STANDARD
70
0
0
ENDTAB
0
TABLE
2
VIEW
5
6
100
AcDbSymbolTable
70
0
0
ENDTAB
0
TABLE
2
UCS
5
7
100
AcDbSymbolTable
70
0
0
ENDTAB
0
TABLE
2
APPID
5
9
100
AcDbSymbolTable
70
2
0
APPID
5
12
100
AcDbSymbolTableRecord
100
AcDbRegAppTableRecord
2
ACAD
70
0
0
ENDTAB
0
TABLE
2
DIMSTYLE
5
A
100
AcDbSymbolTable
70
1
0
ENDTAB
0
TABLE
2
BLOCK_RECORD
5
1
100
AcDbSymbolTable
70
1
0
BLOCK_RECORD
5
1F
100
AcDbSymbolTableRecord
100
AcDbBlockTableRecord
2
*MODEL_SPACE
0
BLOCK_RECORD
5
1B
100
AcDbSymbolTableRecord
100
AcDbBlockTableRecord
2
*PAPER_SPACE
0
ENDTAB
0
ENDSEC
0
SECTION
2
BLOCKS
0
BLOCK
5
20
100
AcDbEntity
100
AcDbBlockBegin
2
*MODEL_SPACE
0
ENDBLK
5
21
100
AcDbEntity
100
AcDbBlockEnd
0
BLOCK
5
1C
100
AcDbEntity
100
AcDbBlockBegin
2
*PAPER_SPACE
0
ENDBLK
5
1D
100
AcDbEntity
100
AcDbBlockEnd
0
ENDSEC
0
SECTION
2
ENTITIES
0
LWPOLYLINE
5
100
100
AcDbEntity
8
0
100
AcDbPolyline
90
8
70
1
43
0.0
10
0
20
601.00000000000011
42
0.41421356237309881
10
-2.999999999999972
20
604
10
-467
20
604
42
0.41421356237310886
10
-470
20
601.00000000000011
10
-470
20
2.9999999999999716
42
0.4142135623730962
10
-467
20
-1.2212453270876722e-14
10
-2.9999999999999716
20
0
42
0.41421356237308887
10
-6.6613381477509392e-15
20
2.9999999999999716
0
LWPOLYLINE
5
101
100
AcDbEntity
8
0
100
AcDbPolyline
90
4
70
1
43
0.0
10
-27.349999999995802
20
62.499999999990294
10
-27.350000000004044
20
57.499999999990266
42
-0.99999999999999989
10
-32.649999999995813
20
57.500000000009749
10
-32.650000000004056
20
62.500000000009727
42
-0.99999999999999989
0
LWPOLYLINE
5
102
100
AcDbEntity
8
0
100
AcDbPolyline
90
4
70
1
43
0.0
10
-27.349999999995802
20
496.50000000001
10
-27.350000000156065
20
491.50000000001023
42
-0.99999999999999989
10
-32.649999999843757
20
491.49999999999005
10
-32.650000000004127
20
496.49999999999
42
-0.99999999999999989
0
LWPOLYLINE
5
103
100
AcDbEntity
8
0
100
AcDbPolyline
90
4
70
1
43
0.0
10
-27.349999999995802
20
571.50000000003035
10
-27.350000000103201
20
566.50000000003058
42
-0.99999999999999989
10
-32.649999999896622
20
566.49999999996965
10
-32.650000000003985
20
571.49999999996965
42
-0.99999999999999989
0
LWPOLYLINE
5
104
100
AcDbEntity
8
0
100
AcDbPolyline
90
4
70
1
43
0.0
10
-109.34999999999583
20
62.499999999990294
10
-109.35000000000407
20
57.499999999990266
42
-0.99999999999999989
10
-114.64999999999584
20
57.500000000009749
10
-114.65000000000408
20
62.500000000009727
42
-0.99999999999999989
0
LWPOLYLINE
5
105
100
AcDbEntity
8
0
100
AcDbPolyline
90
4
70
1
43
0.0
10
-109.34999999999583
20
496.50000000001
10
-109.35000000015609
20
491.50000000001023
42
-0.99999999999999989
10
-114.64999999984379
20
491.49999999999005
10
-114.65000000000416
20
496.49999999999
42
-0.99999999999999989
0
LWPOLYLINE
5
106
100
AcDbEntity
8
0
100
AcDbPolyline
90
4
70
1
43
0.0
10
-109.34999999999583
20
571.50000000003035
10
-109.35000000010322
20
566.50000000003058
42
-0.99999999999999989
10
-114.64999999989665
20
566.49999999996965
10
-114.65000000000401
20
571.49999999996965
42
-0.99999999999999989
0
LWPOLYLINE
5
107
100
AcDbEntity
8
0
100
AcDbPolyline
90
4
70
1
43
0.0
10
-191.34999999999587
20
62.499999999990294
10
-191.35000000000412
20
57.499999999990266
42
-0.99999999999999989
10
-196.64999999999588
20
57.500000000009749
10
-196.65000000000413
20
62.500000000009727
42
-0.99999999999999989
0
LWPOLYLINE
5
108
100
AcDbEntity
8
0
100
AcDbPolyline
90
4
70
1
43
0.0
10
-191.34999999999587
20
496.50000000001
10
-191.35000000015609
20
491.50000000001023
42
-0.99999999999999989
10
-196.64999999984383
20
491.49999999999005
10
-196.65000000000418
20
496.49999999999
42
-0.99999999999999989
0
LWPOLYLINE
5
109
100
AcDbEntity
8
0
100
AcDbPolyline
90
4
70
1
43
0.0
10
-191.34999999999587
20
571.50000000003035
10
-191.35000000010331
20
566.50000000003058
42
-0.99999999999999989
10
-196.64999999989669
20
566.49999999996965
10
-196.65000000000404
20
571.49999999996965
42
-0.99999999999999989
0
LWPOLYLINE
5
110
100
AcDbEntity
8
0
100
AcDbPolyline
90
4
70
1
43
0.0
10
-273.34999999999587
20
62.499999999990294
10
-273.35000000000412
20
57.499999999990266
42
-0.99999999999999989
10
-278.64999999999588
20
57.500000000009749
10
-278.65000000000401
20
62.500000000009727
42
-0.99999999999999989
0
LWPOLYLINE
5
111
100
AcDbEntity
8
0
100
AcDbPolyline
90
4
70
1
43
0.0
10
-273.34999999999587
20
496.50000000001
10
-273.35000000015617
20
491.50000000001023
42
-0.99999999999999989
10
-278.64999999984383
20
491.49999999999005
10
-278.65000000000418
20
496.49999999999
42
-0.99999999999999989
0
LWPOLYLINE
5
112
100
AcDbEntity
8
0
100
AcDbPolyline
90
4
70
1
43
0.0
10
-273.34999999999587
20
571.50000000003035
10
-273.35000000010319
20
566.50000000003058
42
-0.99999999999999989
10
-278.64999999989669
20
566.49999999996965
10
-278.65000000000401
20
571.49999999996965
42
-0.99999999999999989
0
LWPOLYLINE
5
113
100
AcDbEntity
8
0
100
AcDbPolyline
90
4
70
1
43
0.0
10
-355.34999999999582
20
62.499999999990294
10
-355.35000000000412
20
57.499999999990266
42
-0.99999999999999989
10
-360.64999999999588
20
57.500000000009749
10
-360.65000000000407
20
62.500000000009727
42
-0.99999999999999989
0
LWPOLYLINE
5
114
100
AcDbEntity
8
0
100
AcDbPolyline
90
4
70
1
43
0.0
10
-355.34999999999582
20
496.50000000001
10
-355.35000000015611
20
491.50000000001023
42
-0.99999999999999989
10
-360.64999999984377
20
491.49999999999005
10
-360.65000000000407
20
496.49999999999
42
-0.99999999999999989
0
LWPOLYLINE
5
115
100
AcDbEntity
8
0
100
AcDbPolyline
90
4
70
1
43
0.0
10
-355.34999999999582
20
571.50000000003035
10
-355.35000000010325
20
566.50000000003058
42
-0.99999999999999989
10
-360.64999999989664
20
566.49999999996965
10
-360.65000000000407
20
571.49999999996965
42
-0.99999999999999989
0
LWPOLYLINE
5
116
100
AcDbEntity
8
0
100
AcDbPolyline
90
4
70
1
43
0.0
10
-437.34999999999587
20
62.499999999990294
10
-437.35000000000412
20
57.499999999990266
42
-0.99999999999999989
10
-442.64999999999588
20
57.500000000009749
10
-442.65000000000413
20
62.500000000009727
42
-0.99999999999999989
0
LWPOLYLINE
5
117
100
AcDbEntity
8
0
100
AcDbPolyline
90
4
70
1
43
0.0
10
-437.34999999999587
20
496.50000000001
10
-437.35000000015617
20
491.50000000001023
42
-0.99999999999999989
10
-442.64999999984383
20
491.49999999999005
10
-442.65000000000413
20
496.49999999999
42
-0.99999999999999989
0
LWPOLYLINE
5
118
100
AcDbEntity
8
0
100
AcDbPolyline
90
4
70
1
43
0.0
10
-437.34999999999587
20
571.50000000003035
10
-437.35000000010331
20
566.50000000003058
42
-0.99999999999999989
10
-442.64999999989669
20
566.49999999996965
10
-442.65000000000413
20
571.49999999996965
42
-0.99999999999999989
0
CIRCLE
5
119
100
AcDbEntity
8
0
100
AcDbCircle
10
-10
20
594
30
0
40
2.6500000000000057
210
0
220
0
230
1
0
CIRCLE
5
120
100
AcDbEntity
8
0
100
AcDbCircle
10
-10
20
496.66666666666674
30
0
40
2.6500000000000057
210
0
220
0
230
1
0
CIRCLE
5
121
100
AcDbEntity
8
0
100
AcDbCircle
10
-10
20
399.33333333333337
30
0
40
2.6500000000000057
210
0
220
0
230
1
0
CIRCLE
5
122
100
AcDbEntity
8
0
100
AcDbCircle
10
-10
20
302
30
0
40
2.6500000000000057
210
0
220
0
230
1
0
CIRCLE
5
123
100
AcDbEntity
8
0
100
AcDbCircle
10
-10
20
204.66666666666669
30
0
40
2.6500000000000057
210
0
220
0
230
1
0
CIRCLE
5
124
100
AcDbEntity
8
0
100
AcDbCircle
10
-10
20
107.33333333333334
30
0
40
2.6500000000000057
210
0
220
0
230
1
0
CIRCLE
5
125
100
AcDbEntity
8
0
100
AcDbCircle
10
-10
20
10
30
0
40
2.6500000000000057
210
0
220
0
230
1
0
CIRCLE
5
126
100
AcDbEntity
8
0
100
AcDbCircle
10
-460
20
594
30
0
40
2.6500000000000057
210
0
220
-0
230
1
0
CIRCLE
5
127
100
AcDbEntity
8
0
100
AcDbCircle
10
-460
20
496.66666666666674
30
0
40
2.6500000000000057
210
0
220
-0
230
1
0
CIRCLE
5
128
100
AcDbEntity
8
0
100
AcDbCircle
10
-460
20
399.33333333333337
30
0
40
2.6500000000000057
210
0
220
-0
230
1
0
CIRCLE
5
129
100
AcDbEntity
8
0
100
AcDbCircle
10
-460
20
302
30
0
40
2.6500000000000057
210
0
220
-0
230
1
0
CIRCLE
5
130
100
AcDbEntity
8
0
100
AcDbCircle
10
-460
20
204.66666666666669
30
0
40
2.6500000000000057
210
0
220
-0
230
1
0
CIRCLE
5
131
100
AcDbEntity
8
0
100
AcDbCircle
10
-460
20
107.33333333333334
30
0
40
2.6500000000000057
210
0
220
-0
230
1
0
CIRCLE
5
132
100
AcDbEntity
8
0
100
AcDbCircle
10
-460
20
10
30
0
40
2.6500000000000057
210
0
220
-0
230
1
0
CIRCLE
5
133
100
AcDbEntity
8
0
100
AcDbCircle
10
-24.000000000000448
20
24.999999999940663
30
0
40
1.2645
210
0
220
0
230
1
0
CIRCLE
5
134
100
AcDbEntity
8
0
100
AcDbCircle
10
-96.000000000000441
20
24.999999999940634
30
0
40
1.2645
210
0
220
0
230
1
0
CIRCLE
5
135
100
AcDbEntity
8
0
100
AcDbCircle
10
-60.000000000000455
20
4.9999999999406128
30
0
40
1.2645
210
0
220
0
230
1
0
CIRCLE
5
136
100
AcDbEntity
8
0
100
AcDbCircle
10
-60.000000000000462
20
44.999999999940599
30
0
40
1.2645
210
0
220
0
230
1
0
LWPOLYLINE
5
137
100
AcDbEntity
8
0
100
AcDbPolyline
90
8
70
1
43
0.0
10
-87.250000000000455
20
40.399999999940768
10
-32.750000000000483
20
40.399999999940789
42
-0.4142135623730947
10
-29.00000000000048
20
36.649999999940796
10
-29.000000000000476
20
13.349999999940788
42
-0.41421356237309781
10
-32.75000000000049
20
9.5999999999407954
10
-87.250000000000455
20
9.5999999999407937
42
-0.4142135623730947
10
-91.000000000000455
20
13.349999999940788
10
-91.000000000000441
20
36.649999999940796
42
-0.41421356237309431
0
ENDSEC
0
SECTION
2
OBJECTS
0
DICTIONARY
5
C
100
AcDbDictionary
3
ACAD_GROUP
350
D
3
ACAD_MLINESTYLE
350
17
0
DICTIONARY
5
D
100
AcDbDictionary
0
DICTIONARY
5
1A
330
C
100
AcDbDictionary
0
DICTIONARY
5
17
100
AcDbDictionary
0
ENDSEC
0
EOF
